<?xml version="1.0" standalone="no"?><!DOCTYPE svg PUBLIC "-//W3C//DTD SVG 1.1//EN" "http://www.w3.org/Graphics/SVG/1.1/DTD/svg11.dtd"><svg t="1490283325214" class="icon" style="" viewBox="0 0 1756 1024" version="1.1" xmlns="http://www.w3.org/2000/svg" p-id="9831" xmlns:xlink="http://www.w3.org/1999/xlink" width="34.296875" height="20"><defs><style type="text/css"></style></defs><path d="M0 1024 1755.428571 1024C1754.881375 743.853014 1620.635721 480.796733 1394.102857 315.977143L1584.274286 125.805714C1598.12115 112.071929 1605.909826 93.376917 1605.909826 73.874286 1605.909826 54.371655 1598.12115 35.676643 1584.274286 21.942857 1570.5405 8.095989 1551.845493 0.307323 1532.342857 0.307323 1512.840221 0.307323 1494.145214 8.095989 1480.411429 21.942857L1263.908571 238.445714C1144.2011 177.823049 1011.89694 146.250465 877.714286 146.285714 742.59409 146.228651 609.335135 177.789981 488.594286 238.445714L270.628571 21.942857C256.894786 8.095989 238.199774 0.307323 218.697143 0.307323 199.194511 0.307323 180.4995 8.095989 166.765714 21.942857 152.918845 35.676643 145.13018 54.371655 145.13018 73.874286 145.13018 93.376917 152.918845 112.071929 166.765714 125.805714L358.4 317.44C133.387514 482.578925 0.330247 744.891824 0 1024L0 1024ZM1170.285714 585.142857 1316.571429 585.142857 1316.571429 731.428571 1170.285714 731.428571 1170.285714 585.142857 1170.285714 585.142857ZM438.857143 585.142857 585.142857 585.142857 585.142857 731.428571 438.857143 731.428571 438.857143 585.142857 438.857143 585.142857Z" p-id="9832" fill="#ffffff"></path></svg>